<svg width="3189" height="740" viewBox="0 0 3189 740" fill="none" xmlns="http://www.w3.org/2000/svg">
<path d="M1826.39 290.74C1890.8 290.74 1923.66 323.6 1923.66 370.918V522.073H1895.62C1882.79 522.073 1872.4 511.676 1872.4 498.852C1858.81 517.691 1834.72 529.521 1800.1 529.521C1757.61 529.521 1719.93 511.119 1719.93 465.554C1719.93 413.855 1765.93 395.891 1816.75 386.69L1869.33 377.052V371.794C1869.33 349.887 1853.12 337.62 1827.27 337.62C1796.6 337.62 1780.83 351.64 1757.61 373.984L1721.68 341.125C1749.72 307.827 1782.14 290.74 1826.39 290.74ZM2069.8 290.74C2137.71 290.74 2185.91 338.934 2185.91 409.911C2185.91 480.888 2137.71 529.083 2069.8 529.083C2001.46 529.083 1953.26 480.888 1953.26 409.911C1953.26 338.934 2001.46 290.74 2069.8 290.74ZM2678.58 290.74C2746.92 290.74 2783.29 333.677 2783.29 402.463C2783.29 409.473 2782.85 419.988 2782.41 424.808H2621.62C2626.44 457.229 2645.72 480.889 2684.71 480.889C2711 480.889 2725.02 472.126 2751.31 450.22L2783.29 485.27C2750.43 518.567 2719.76 529.083 2683.4 529.083C2611.1 529.083 2565.98 482.641 2565.98 411.226C2565.98 342.001 2608.04 290.74 2678.58 290.74ZM1687.23 522.073H1663.57C1647.36 522.073 1634.21 508.93 1634.21 492.718C1619.32 515.062 1596.1 528.644 1562.8 528.645C1505.84 528.645 1463.78 482.641 1463.78 410.35C1463.78 337.62 1506.28 292.054 1563.24 292.054C1593.47 292.054 1615.37 302.57 1630.27 321.409V211H1687.23V522.073ZM3131.61 298.188H3185.07V341.562H3131.61V457.229C3131.61 473.002 3139.06 477.821 3153.96 477.821C3160.53 477.821 3167.54 477.384 3182 473.879L3188.57 519.006C3168.85 525.578 3152.64 527.33 3138.19 527.33C3092.62 527.33 3074.66 505.862 3074.66 464.239V341.562H3034.79V298.188H3074.66V228.963H3131.61V298.188ZM1199.39 269.417H1031.42V335.11H1199.37V393.527H1031.42V466.574H1199.37V524.992H973V240.185H973.021V211H1199.39V269.417ZM1353.26 290.74C1405.39 290.74 1433.43 323.162 1433.43 368.728V522.073H1376.48V385.814C1376.48 356.46 1362.02 339.811 1334.85 339.811C1308.57 339.811 1289.73 359.089 1289.73 387.129V522.073H1232.77V298.188H1260.37C1274.41 298.188 1285.78 309.565 1285.78 323.6C1299.8 303.446 1322.59 290.74 1353.26 290.74ZM2461.83 290.74C2510.03 290.74 2536.31 320.095 2536.31 365.66V522.073H2479.36V382.747C2479.36 357.774 2469.72 339.811 2443.87 339.811C2418.02 339.811 2404.44 359.089 2404.44 384.5V522.073H2347.48V382.747C2347.48 357.774 2338.28 339.811 2311.99 339.811C2286.14 339.811 2272.56 359.527 2272.56 384.5V522.073H2215.6V298.188H2243.64C2257.43 298.188 2268.62 309.369 2268.62 323.161C2280.45 303.884 2301.04 290.74 2332.58 290.74C2361.94 290.74 2382.97 303.007 2394.8 323.6C2407.94 304.76 2428.97 290.74 2461.83 290.74ZM2934.68 290.74C2986.82 290.74 3014.86 323.162 3014.86 368.728V522.073H2957.91V385.814C2957.91 356.46 2943.45 339.811 2916.28 339.811C2889.99 339.811 2871.16 359.089 2871.16 387.129V522.073H2814.2V298.188H2841.8C2855.83 298.188 2867.21 309.565 2867.21 323.6C2881.23 303.446 2904.01 290.74 2934.68 290.74ZM1831.65 425.684C1797.91 432.694 1775.57 440.58 1775.57 461.61C1775.57 475.631 1788.27 483.955 1809.74 483.955C1838.66 483.955 1869.33 469.935 1869.33 430.941V417.798L1831.65 425.684ZM2069.8 338.935C2034.32 338.935 2011.09 366.974 2011.09 409.911C2011.09 453.286 2034.32 480.889 2069.8 480.889C2104.85 480.889 2128.08 453.286 2128.08 409.911C2128.08 366.975 2104.85 338.935 2069.8 338.935ZM1576.38 341.562C1543.96 341.562 1521.61 367.851 1521.61 410.35C1521.61 452.41 1542.21 479.574 1575.94 479.574C1608.8 479.574 1632.46 453.286 1632.46 410.35C1632.46 366.537 1607.93 341.563 1576.38 341.562ZM2676.82 335.429C2646.59 335.429 2629.07 355.145 2622.93 384.062H2727.65C2725.46 354.269 2707.93 335.429 2676.82 335.429Z" fill="#0E243E"/>
<path d="M172.708 210.653C206.638 201.561 226.774 166.686 217.682 132.756C208.59 98.8258 173.714 78.6902 139.784 87.7817C105.854 96.8733 85.7178 131.749 94.8094 165.679C103.901 199.609 138.777 219.744 172.708 210.653Z" fill="url(#paint0_linear_1_134)"/>
<path fill-rule="evenodd" clip-rule="evenodd" d="M228.088 24.6924L320.243 0L372.207 177.445L348.654 260.277C338.212 301.962 305.664 334.509 263.98 344.951L175.472 367.123L0 320.244L24.6927 228.09L302.538 302.538L228.088 24.6924Z" fill="url(#paint1_linear_1_134)"/>
<path d="M175.472 367.123L0.00282572 419.75L24.6955 511.904L24.7053 511.901L24.706 511.904L302.534 437.461L228.093 715.277L228.094 715.277L228.086 715.308L320.24 740L320.247 739.969L369.368 556.655L348.654 473.968C338.212 432.284 305.664 399.736 263.98 389.294L175.472 367.123Z" fill="url(#paint2_linear_1_134)"/>
<path d="M172.708 643.336C206.638 634.245 226.774 599.369 217.682 565.439C208.59 531.509 173.714 511.374 139.784 520.465C105.854 529.557 85.7178 564.433 94.8094 598.362C103.901 632.292 138.777 652.428 172.708 643.336Z" fill="url(#paint3_linear_1_134)"/>
<path d="M554.496 370.049L477.672 389.294C435.987 399.736 403.439 432.284 392.997 473.968L369.368 556.655L419.751 739.978L511.905 715.286L437.461 437.46L715.294 511.904L739.987 419.751L554.496 370.049Z" fill="url(#paint4_linear_1_134)"/>
<path d="M600.732 643.336C634.662 634.245 654.798 599.369 645.706 565.439C636.615 531.509 601.738 511.374 567.808 520.465C533.878 529.557 513.742 564.432 522.834 598.362C531.925 632.292 566.801 652.428 600.732 643.336Z" fill="url(#paint5_linear_1_134)"/>
<path d="M372.207 177.445L392.802 262.049C403.305 305.195 437.429 338.615 480.785 348.215L554.496 370.049L740 320.244L715.307 228.09L437.459 302.539L511.902 24.7139L419.748 0.0214844L372.207 177.445Z" fill="url(#paint6_linear_1_134)"/>
<path d="M645.706 132.756C654.798 166.686 634.662 201.561 600.732 210.653C566.801 219.744 531.925 199.609 522.834 165.679C513.742 131.749 533.878 96.8733 567.808 87.7818C601.738 78.6902 636.615 98.8258 645.706 132.756Z" fill="url(#paint7_linear_1_134)"/>
<defs>
<linearGradient id="paint0_linear_1_134" x1="370" y1="0" x2="370" y2="370" gradientUnits="userSpaceOnUse">
<stop offset="0.025" stop-color="#FA5908"/>
<stop offset="1" stop-color="#FFAD65"/>
</linearGradient>
<linearGradient id="paint1_linear_1_134" x1="370" y1="0" x2="370" y2="370" gradientUnits="userSpaceOnUse">
<stop offset="0.025" stop-color="#FA5908"/>
<stop offset="1" stop-color="#FFAD65"/>
</linearGradient>
<linearGradient id="paint2_linear_1_134" x1="370" y1="370" x2="370" y2="740" gradientUnits="userSpaceOnUse">
<stop stop-color="#EA4705"/>
<stop offset="1" stop-color="#FF6CB3"/>
</linearGradient>
<linearGradient id="paint3_linear_1_134" x1="370" y1="370" x2="370" y2="740" gradientUnits="userSpaceOnUse">
<stop stop-color="#EA4705"/>
<stop offset="1" stop-color="#FF6CB3"/>
</linearGradient>
<linearGradient id="paint4_linear_1_134" x1="370" y1="370" x2="370" y2="740" gradientUnits="userSpaceOnUse">
<stop stop-color="#8478E0"/>
<stop offset="1" stop-color="#F78AFF"/>
</linearGradient>
<linearGradient id="paint5_linear_1_134" x1="370" y1="370" x2="370" y2="740" gradientUnits="userSpaceOnUse">
<stop stop-color="#8478E0"/>
<stop offset="1" stop-color="#F78AFF"/>
</linearGradient>
<linearGradient id="paint6_linear_1_134" x1="370" y1="0" x2="370" y2="370" gradientUnits="userSpaceOnUse">
<stop stop-color="#8478E0"/>
<stop offset="1" stop-color="#53ACDE"/>
</linearGradient>
<linearGradient id="paint7_linear_1_134" x1="370" y1="0" x2="370" y2="370" gradientUnits="userSpaceOnUse">
<stop stop-color="#8478E0"/>
<stop offset="1" stop-color="#53ACDE"/>
</linearGradient>
</defs>
</svg>
